<?xml version="1.0" standalone="no"?>
<!DOCTYPE svg PUBLIC "-//W3C//DTD SVG 20010904//EN"
 "http://www.w3.org/TR/2001/REC-SVG-20010904/DTD/svg10.dtd">
<svg version="1.0" xmlns="http://www.w3.org/2000/svg"
 width="200.000000pt" height="200.000000pt" viewBox="0 0 200.000000 200.000000"
 preserveAspectRatio="xMidYMid meet">
<metadata>
Created by potrace 1.11, written by Peter Selinger 2001-2013
</metadata>
<g transform="translate(0.000000,200.000000) scale(0.100000,-0.100000)"
fill="#000000" stroke="none">
<path d="M450 1496 c0 -1 -23 -67 -51 -147 -28 -79 -55 -155 -59 -169 -5 -14
-34 -97 -65 -185 -32 -88 -63 -178 -70 -200 -7 -22 -34 -97 -59 -168 -24 -70
-44 -127 -43 -128 21 -5 160 0 166 7 6 7 191 528 257 723 6 19 8 16 34 -59 30
-88 161 -464 199 -574 17 -50 35 -92 40 -96 10 -5 150 -5 156 1 2 2 -13 49
-32 104 -19 55 -61 177 -93 270 -33 94 -89 256 -125 360 -37 105 -72 206 -78
225 l-12 35 -83 2 c-45 1 -82 1 -82 -1z"/>
<path d="M1150 1496 c0 -3 13 -29 28 -58 16 -29 63 -118 105 -198 42 -80 89
-169 105 -199 l30 -54 -55 -106 c-30 -58 -86 -165 -124 -237 -38 -73 -69 -136
-69 -140 0 -5 39 -9 87 -8 l88 1 35 69 c19 38 53 107 74 154 l39 85 2 160 1
160 -81 185 -81 185 -92 3 c-50 1 -92 0 -92 -2z"/>
<path d="M1697 1463 c-8 -21 -45 -100 -81 -176 l-66 -138 0 -151 0 -151 72
-174 c49 -119 76 -173 87 -174 48 -3 164 0 168 5 3 2 -6 24 -20 48 -13 24 -66
124 -117 223 -51 99 -97 185 -102 192 -7 8 12 54 60 145 38 73 100 190 137
261 l67 127 -95 0 -95 0 -15 -37z"/>
<path d="M425 771 c-8 -25 -15 -49 -15 -56 0 -7 41 -10 125 -10 77 0 125 4
124 10 0 5 -8 30 -18 55 l-18 45 -92 0 -91 0 -15 -44z"/>
</g>
</svg>
